<svg width="121" height="73" viewBox="0 0 121 73" fill="none" xmlns="http://www.w3.org/2000/svg">
<path d="M5.248 59V14.84H22.016C34.048 14.84 40.064 20.856 40.064 32.888V40.952C40.064 52.984 34.048 59 22.016 59H5.248ZM14.464 50.68H22.528C28.0747 50.68 30.848 47.9067 30.848 42.36V31.48C30.848 25.9333 28.0747 23.16 22.528 23.16H14.464V50.68ZM48.6705 48.248V25.592C48.6705 18.424 52.2545 14.84 59.4225 14.84H76.5105L80.7985 18.168V23.16H59.8065C58.5265 23.16 57.8865 23.8 57.8865 25.08V48.76C57.8865 50.04 58.5265 50.68 59.8065 50.68H80.7985V55.672L76.5105 59H59.4225C52.2545 59 48.6705 55.416 48.6705 48.248Z" fill="#0A9396"/>
<path d="M66.304 49V25.32H70.72V32.104H75.648C79.104 32.104 80.832 33.832 80.832 37.288V49H76.416V36.968C76.416 36.2853 76.0747 35.944 75.392 35.944H70.72V49H66.304ZM85.176 43.816V32.104H89.592V44.136C89.592 44.8187 89.9333 45.16 90.616 45.16H95.288V32.104H99.704V49H90.36C86.904 49 85.176 47.272 85.176 43.816ZM104.304 49V25.32H108.72V32.104H113.648C117.104 32.104 118.832 33.832 118.832 37.288V43.816C118.832 47.272 117.104 49 113.648 49H104.304ZM108.72 45.16H113.392C114.075 45.16 114.416 44.8187 114.416 44.136V36.968C114.416 36.2853 114.075 35.944 113.392 35.944H108.72V45.16Z" fill="white"/>
</svg>
